<?xml version="1.0" encoding="iso-8859-1"?>
<!-- Generator: Adobe Illustrator 19.0.0, SVG Export Plug-In . SVG Version: 6.00 Build 0)  -->
<svg version="1.1" id="Capa_1" xmlns="http://www.w3.org/2000/svg" xmlns:xlink="http://www.w3.org/1999/xlink" x="0px" y="0px"
	 viewBox="0 0 512 512" style="enable-background:new 0 0 512 512;" xml:space="preserve" fill="#FFFFFF">
<g>
	<g>
		<rect x="117.333" y="64" width="106.667" height="21.333"/>
	</g>
</g>
<g>
	<g>
		<rect x="117.333" y="106.667" width="21.333" height="21.333"/>
	</g>
</g>
<g>
	<g>
		<rect x="160" y="106.667" width="21.333" height="21.333"/>
	</g>
</g>
<g>
	<g>
		<path d="M455.541,88.459L370.208,3.125c-2-2-4.713-3.125-7.541-3.125H85.333c-17.673,0-32,14.327-32,32v448
			c0,17.673,14.327,32,32,32h341.333c17.673,0,32-14.327,32-32V96C458.666,93.171,457.542,90.459,455.541,88.459z M437.333,480
			c0,5.891-4.776,10.667-10.667,10.667H85.333c-5.891,0-10.667-4.776-10.667-10.667V32c0-5.891,4.776-10.667,10.667-10.667
			l272.917,0l79.083,79.083V480z"/>
	</g>
</g>
<g>
	<g>
		<path d="M384,85.333c-5.891,0-10.667-4.776-10.667-10.667v-64H352v64c0,17.673,14.327,32,32,32h21.333V85.333H384z"/>
	</g>
</g>
<g>
	<g>
		<rect x="341.333" y="234.667" width="42.667" height="21.333"/>
	</g>
</g>
<g>
	<g>
		<path d="M384,181.333h-42.667c-5.891,0-10.667,4.776-10.667,10.667v213.333c0.001,2.829,1.125,5.541,3.125,7.541l21.333,21.333
			c2,2.001,4.713,3.125,7.541,3.125c2.829-0.001,5.541-1.125,7.541-3.125l21.333-21.333c2.001-2,3.125-4.713,3.125-7.541V192
			C394.667,186.109,389.891,181.333,384,181.333z M373.333,400.917l-10.667,10.667L352,400.917V202.667h21.333V400.917z"/>
	</g>
</g>
<g>
	<g>
		<path d="M298.667,202.667v-21.333H128c-5.891,0-10.667,4.776-10.667,10.667v64c0,17.673,14.327,32,32,32h149.333v-21.333H149.333
			c-5.891,0-10.667-4.776-10.667-10.667v-53.333H298.667z"/>
	</g>
</g>
<g>
	<g>
		<rect x="192" y="320" width="106.667" height="21.333"/>
	</g>
</g>
<g>
	<g>
		<rect x="117.333" y="362.667" width="181.333" height="21.333"/>
	</g>
</g>
<g>
	<g>
		<rect x="277.333" y="405.333" width="21.333" height="21.333"/>
	</g>
</g>
<g>
	<g>
		<rect x="234.667" y="405.333" width="21.333" height="21.333"/>
	</g>
</g>
<g>
</g>
<g>
</g>
<g>
</g>
<g>
</g>
<g>
</g>
<g>
</g>
<g>
</g>
<g>
</g>
<g>
</g>
<g>
</g>
<g>
</g>
<g>
</g>
<g>
</g>
<g>
</g>
<g>
</g>
</svg>
