<?xml version="1.0" encoding="iso-8859-1"?>
<!-- Generator: Adobe Illustrator 19.0.0, SVG Export Plug-In . SVG Version: 6.00 Build 0)  -->
<svg version="1.1" id="Capa_1" xmlns="http://www.w3.org/2000/svg" xmlns:xlink="http://www.w3.org/1999/xlink" x="0px" y="0px"
	 viewBox="0 0 512 512" style="enable-background:new 0 0 512 512;" xml:space="preserve" fill="#FFFFFF">
<g>
	<g>
		<rect x="117.333" y="64" width="106.667" height="21.333"/>
	</g>
</g>
<g>
	<g>
		<rect x="117.333" y="106.667" width="21.333" height="21.333"/>
	</g>
</g>
<g>
	<g>
		<rect x="160" y="106.667" width="21.333" height="21.333"/>
	</g>
</g>
<g>
	<g>
		<path d="M455.541,88.459L370.208,3.125c-2-2-4.713-3.125-7.541-3.125H85.333c-17.673,0-32,14.327-32,32v448
			c0,17.673,14.327,32,32,32h341.333c17.673,0,32-14.327,32-32V96C458.666,93.171,457.542,90.459,455.541,88.459z M437.333,480
			c0,5.891-4.776,10.667-10.667,10.667H85.333c-5.891,0-10.667-4.776-10.667-10.667V32c0-5.891,4.776-10.667,10.667-10.667
			l272.917,0l79.083,79.083V480z"/>
	</g>
</g>
<g>
	<g>
		<path d="M384,85.333c-5.891,0-10.667-4.776-10.667-10.667v-64H352v64c0,17.673,14.327,32,32,32h21.333V85.333H384z"/>
	</g>
</g>
<g>
	<g>
		<path d="M373.333,213.333H320V192c0-5.891-4.776-10.667-10.667-10.667H202.667c-5.891,0-10.667,4.776-10.667,10.667v21.333
			h-53.333c-11.782,0-21.333,9.551-21.333,21.333v170.667c0,11.782,9.551,21.333,21.333,21.333H160v-21.333h-21.333V234.667h64
			c5.891,0,10.667-4.776,10.667-10.667v-21.333h85.333V224c0,5.891,4.776,10.667,10.667,10.667h64v170.667H352v21.333h21.333
			c11.782,0,21.333-9.551,21.333-21.333V234.667C394.667,222.885,385.115,213.333,373.333,213.333z"/>
	</g>
</g>
<g>
	<g>
		<path d="M256,266.667c-47.128,0-85.333,38.205-85.333,85.333s38.205,85.333,85.333,85.333
			c47.106-0.053,85.28-38.227,85.333-85.333C341.333,304.872,303.128,266.667,256,266.667z M256,416c-35.346,0-64-28.654-64-64
			s28.654-64,64-64c35.332,0.035,63.965,28.668,64,64C320,387.346,291.346,416,256,416z"/>
	</g>
</g>
<g>
	<g>
		<path d="M213.333,352h21.333c0-11.782,9.551-21.333,21.333-21.333v-21.333C232.436,309.333,213.333,328.436,213.333,352z"/>
	</g>
</g>
<g>
	<g>
		<rect x="330.667" y="256" width="21.333" height="21.333"/>
	</g>
</g>
<g>
	<g>
		<rect x="202.667" y="213.333" width="64" height="21.333"/>
	</g>
</g>
<g>
</g>
<g>
</g>
<g>
</g>
<g>
</g>
<g>
</g>
<g>
</g>
<g>
</g>
<g>
</g>
<g>
</g>
<g>
</g>
<g>
</g>
<g>
</g>
<g>
</g>
<g>
</g>
<g>
</g>
</svg>
