<?xml version="1.0" encoding="iso-8859-1"?>
<!-- Generator: Adobe Illustrator 19.0.0, SVG Export Plug-In . SVG Version: 6.00 Build 0)  -->
<svg version="1.1" id="Capa_1" xmlns="http://www.w3.org/2000/svg" xmlns:xlink="http://www.w3.org/1999/xlink" x="0px" y="0px"
	 viewBox="0 0 512 512" style="enable-background:new 0 0 512 512;" xml:space="preserve" fill="#FFFFFF">
<g>
	<g>
		<rect x="117.333" y="64" width="106.667" height="21.333"/>
	</g>
</g>
<g>
	<g>
		<rect x="117.333" y="106.667" width="21.333" height="21.333"/>
	</g>
</g>
<g>
	<g>
		<rect x="160" y="106.667" width="21.333" height="21.333"/>
	</g>
</g>
<g>
	<g>
		<path d="M455.541,88.459L370.208,3.125c-2-2-4.713-3.125-7.541-3.125H85.333c-17.673,0-32,14.327-32,32v448
			c0,17.673,14.327,32,32,32h341.333c17.673,0,32-14.327,32-32V96C458.666,93.171,457.542,90.459,455.541,88.459z M437.333,480
			c0,5.891-4.776,10.667-10.667,10.667H85.333c-5.891,0-10.667-4.776-10.667-10.667V32c0-5.891,4.776-10.667,10.667-10.667
			l272.917,0l79.083,79.083V480z"/>
	</g>
</g>
<g>
	<g>
		<path d="M384,85.333c-5.891,0-10.667-4.776-10.667-10.667v-64H352v64c0,17.673,14.327,32,32,32h21.333V85.333H384z"/>
	</g>
</g>
<g>
	<g>
		<path d="M269.792,227.125c-5.259,5.227-7.797,7.541-13.792,7.541c-5.995,0-8.565-2.315-13.792-7.541
			c-7.127-8.622-17.689-13.667-28.875-13.792v21.333c6.005,0,8.533,2.315,13.792,7.541C234.252,250.83,244.815,255.875,256,256
			c11.185-0.125,21.748-5.17,28.875-13.792c5.259-5.227,7.797-7.541,13.792-7.541v-21.333
			C287.481,213.459,276.919,218.504,269.792,227.125z"/>
	</g>
</g>
<g>
	<g>
		<rect x="245.333" y="245.333" width="21.333" height="213.333"/>
	</g>
</g>
<g>
	<g>
		<path d="M308.213,229.899l-42.667-85.333c-0.945-1.585-2.27-2.91-3.855-3.855c-5.272-3.144-12.095-1.418-15.239,3.855
			l-42.667,85.333c-0.738,1.481-1.122,3.113-1.12,4.768v192H224V237.184l32-64l32,64v189.483h21.333v-192
			C309.335,233.012,308.951,231.38,308.213,229.899z"/>
	</g>
</g>
<g>
	<g>
		<rect x="234.667" y="170.667" width="42.667" height="21.333"/>
	</g>
</g>
<g>
</g>
<g>
</g>
<g>
</g>
<g>
</g>
<g>
</g>
<g>
</g>
<g>
</g>
<g>
</g>
<g>
</g>
<g>
</g>
<g>
</g>
<g>
</g>
<g>
</g>
<g>
</g>
<g>
</g>
</svg>
