<?xml version="1.0" encoding="iso-8859-1"?>
<!-- Generator: Adobe Illustrator 19.0.0, SVG Export Plug-In . SVG Version: 6.00 Build 0)  -->
<svg version="1.1" id="Capa_1" xmlns="http://www.w3.org/2000/svg" xmlns:xlink="http://www.w3.org/1999/xlink" x="0px" y="0px"
	 viewBox="0 0 512 512" style="enable-background:new 0 0 512 512;" xml:space="preserve" fill="#FFFFFF">
<g>
	<g>
		<rect x="96" y="64" width="106.667" height="21.333"/>
	</g>
</g>
<g>
	<g>
		<rect x="96" y="106.667" width="21.333" height="21.333"/>
	</g>
</g>
<g>
	<g>
		<rect x="138.667" y="106.667" width="21.333" height="21.333"/>
	</g>
</g>
<g>
	<g>
		<path d="M434.208,88.459L348.875,3.125c-2-2-4.713-3.125-7.541-3.125H64C46.327,0,32,14.327,32,32v448c0,17.673,14.327,32,32,32
			h213.333v-21.333H64c-5.891,0-10.667-4.776-10.667-10.667V32c0-5.891,4.776-10.667,10.667-10.667h272.917L416,100.416v144.917
			h21.333V96C437.333,93.171,436.209,90.459,434.208,88.459z"/>
	</g>
</g>
<g>
	<g>
		<path d="M362.667,85.333c-5.891,0-10.667-4.776-10.667-10.667v-64h-21.333v64c0,17.673,14.327,32,32,32H384V85.333H362.667z"/>
	</g>
</g>
<g>
	<g>
		<path d="M469.333,362.667h-32V384h21.333v96c0,5.891-4.776,10.667-10.667,10.667H341.333c-5.891,0-10.667-4.776-10.667-10.667v-96
			H352v-21.333h-32c-5.891,0-10.667,4.776-10.667,10.667V480c0,17.673,14.327,32,32,32H448c17.673,0,32-14.327,32-32V373.333
			C480,367.442,475.224,362.667,469.333,362.667z"/>
	</g>
</g>
<g>
	<g>
		<path d="M426.667,277.333h-64c-0.295-0.006-0.589-0.006-0.884,0c-11.538,0.244-20.693,9.795-20.449,21.333v42.667h21.333v-42.667
			h64v42.667H448v-42.667c0.006-0.295,0.006-0.589,0-0.884C447.756,286.245,438.205,277.089,426.667,277.333z"/>
	</g>
</g>
<g>
	<g>
		<path d="M394.667,362.667c-17.673,0-32,14.327-32,32s14.327,32,32,32s32-14.327,32-32S412.34,362.667,394.667,362.667z
			 M394.667,405.333c-5.891,0-10.667-4.776-10.667-10.667S388.776,384,394.667,384s10.667,4.776,10.667,10.667
			S400.558,405.333,394.667,405.333z"/>
	</g>
</g>
<g>
	<g>
		<rect x="384" y="416" width="21.333" height="53.333"/>
	</g>
</g>
<g>
</g>
<g>
</g>
<g>
</g>
<g>
</g>
<g>
</g>
<g>
</g>
<g>
</g>
<g>
</g>
<g>
</g>
<g>
</g>
<g>
</g>
<g>
</g>
<g>
</g>
<g>
</g>
<g>
</g>
</svg>
