<?xml version="1.0" encoding="iso-8859-1"?>
<!-- Generator: Adobe Illustrator 19.0.0, SVG Export Plug-In . SVG Version: 6.00 Build 0)  -->
<svg version="1.1" id="Capa_1" xmlns="http://www.w3.org/2000/svg" xmlns:xlink="http://www.w3.org/1999/xlink" x="0px" y="0px"
	 viewBox="0 0 512 512" style="enable-background:new 0 0 512 512;" fill="#FFFFFF" xml:space="preserve">
<g>
	<g>
		<rect x="117.333" y="64" width="106.667" height="21.333"/>
	</g>
</g>
<g>
	<g>
		<rect x="117.333" y="106.667" width="21.333" height="21.333"/>
	</g>
</g>
<g>
	<g>
		<rect x="160" y="106.667" width="21.333" height="21.333"/>
	</g>
</g>
<g>
	<g>
		<path d="M455.541,88.459L370.208,3.125c-2-2-4.713-3.125-7.541-3.125H85.333c-17.673,0-32,14.327-32,32v448
			c0,17.673,14.327,32,32,32h341.333c17.673,0,32-14.327,32-32V96C458.666,93.171,457.542,90.459,455.541,88.459z M437.333,480
			c0,5.891-4.776,10.667-10.667,10.667H85.333c-5.891,0-10.667-4.776-10.667-10.667V32c0-5.891,4.776-10.667,10.667-10.667
			l272.917,0l79.083,79.083V480z"/>
	</g>
</g>
<g>
	<g>
		<path d="M384,85.333c-5.891,0-10.667-4.776-10.667-10.667v-64H352v64c0,17.673,14.327,32,32,32h21.333V85.333H384z"/>
	</g>
</g>
<g>
	<g>
		<path d="M352,202.667H234.667V224h128v-10.667C362.667,207.442,357.891,202.667,352,202.667z"/>
	</g>
</g>
<g>
	<g>
		<path d="M373.333,234.667h-128v-32c0-11.782-9.551-21.333-21.333-21.333h-85.333c-11.782,0-21.333,9.551-21.333,21.333v224
			c0,11.782,9.551,21.333,21.333,21.333h234.667c11.782,0,21.333-9.551,21.333-21.333V256
			C394.667,244.218,385.115,234.667,373.333,234.667z M373.333,426.667H138.667v-224H224v42.667c0,5.891,4.776,10.667,10.667,10.667
			h138.667V426.667z"/>
	</g>
</g>
<g>
	<g>
		<rect x="192" y="234.667" width="42.667" height="21.333"/>
	</g>
</g>
<g>
</g>
<g>
</g>
<g>
</g>
<g>
</g>
<g>
</g>
<g>
</g>
<g>
</g>
<g>
</g>
<g>
</g>
<g>
</g>
<g>
</g>
<g>
</g>
<g>
</g>
<g>
</g>
<g>
</g>
</svg>
